# xmcd CD database file
#
# Track frame offsets:
#	150
#	21960
#	33455
#	53083
#	70773
#	88059
#	101253
#	114566
#	130691
#	147331
#	158991
#	178121
#	190155
#	206146
#	221219
#	237939
#	257316
#	270741
#
# Disc length: 3876 seconds
#
# Revision: 0
# Processed by: cddbd v1.5.2PL0 Copyright (c) Steve Scherf et al.
# Submitted via: CDex 1.50
#
DISCID=050f2212
DTITLE=Jonny Hill - Lichter Auf Den Huegeln
DYEAR=2006
DGENRE=Country
TTITLE0=Ruf Teddybaer 1 - 4
TTITLE1=Ich Fahre Meine Tour [six Days
TTITLE2=30 Tonnen Kerosin
TTITLE3=Deine Augen
TTITLE4=Express-Container Paris
TTITLE5=Gott Sei Dank Gibt's Das Radio
TTITLE6=Ich Bin Wieder Zu Haus
TTITLE7=Nimm Mich Mit in Dein Leben
TTITLE8=Wieviel Wert Sind 20 Jahre
TTITLE9=Lichter Auf Den Huegeln
TTITLE10=Kinder, Alte Hunde und Junger
TTITLE11=Mehr Hinterm Lenkrad Als Zu Ha
TTITLE12=Und Wieder Zeigt Dir Einer Ein
TTITLE13=Vielleicht Bist Du Auch So All
TTITLE14=Wenn Dich Jemand Vermisst
TTITLE15=50.000 Kilometer
TTITLE16=Ich Bin Einer So Wie Du
TTITLE17=Hallo Teddybaer
EXTD=YEAR: 2006
EXTT0=
EXTT1=
EXTT2=
EXTT3=
EXTT4=
EXTT5=
EXTT6=
EXTT7=
EXTT8=
EXTT9=
EXTT10=
EXTT11=
EXTT12=
EXTT13=
EXTT14=
EXTT15=
EXTT16=
EXTT17=
PLAYORDER=
